<svg width="576.7925292968749px" height="192.8052734375px" xmlns="http://www.w3.org/2000/svg" viewBox="-38.396264648437466 -21.402636718750003 576.7925292968749 192.8052734375" style="background: rgba(0, 0, 0, 0);" preserveAspectRatio="xMidYMid"><defs><linearGradient id="editing-gradient-gradient" x1="0" x2="1" y1="0.5" y2="0.5" gradientUnits="objectBoundingBox"><stop offset="0" stop-color="#f0f"></stop><stop offset="1" stop-color="#0ff"></stop></linearGradient></defs><g><g transform="translate(45.0250084400177, 104.97500038146973)"><path d="M46.00-18.42L46.00-18.42L46.00-18.42Q48.72-16.57 48.72-12.48L48.72-12.48L48.72-12.48Q48.72-8.39 46.65-5.78L46.65-5.78L46.65-5.78Q44.58-3.16 41.20-1.42L41.20-1.42L41.20-1.42Q34.23 2.18 26.70 2.18L26.70 2.18L26.70 2.18Q19.18 2.18 14.77 0.55L14.77 0.55L14.77 0.55Q10.36-1.09 7.41-4.14L7.41-4.14L7.41-4.14Q1.64-9.92 1.64-20.49L1.64-20.49L1.64-20.49Q1.64-36.95 10.57-46.98L10.57-46.98L10.57-46.98Q20.16-57.77 36.84-57.77L36.84-57.77L36.84-57.77Q47.20-57.77 52.32-53.41L52.32-53.41L52.32-53.41Q56.13-50.14 56.13-44.80L56.13-44.80L56.13-44.80Q56.13-25.61 23.00-25.61L23.00-25.61L23.00-25.61Q22.56-22.78 22.56-20.38L22.56-20.38L22.56-20.38Q22.56-15.37 24.80-13.46L24.80-13.46L24.80-13.46Q27.03-11.55 31.17-11.55L31.17-11.55L31.17-11.55Q35.32-11.55 39.73-13.46L39.73-13.46L39.73-13.46Q44.15-15.37 46.00-18.42ZM23.76-30.30L23.76-30.30L23.76-30.30Q31.50-30.30 35.97-35.10L35.97-35.10L35.97-35.10Q40.44-39.68 40.44-46.98L40.44-46.98L40.44-46.98Q40.44-49.49 39.51-50.85L39.51-50.85L39.51-50.85Q38.59-52.21 36.73-52.21L36.73-52.21L36.73-52.21Q34.88-52.21 33.30-51.50L33.30-51.50L33.30-51.50Q31.72-50.79 30.08-48.40L30.08-48.40L30.08-48.40Q26.05-42.95 23.76-30.30ZM83.60 2.18L83.60 2.18L83.60 2.18Q59.62 2.18 59.62-20.38L59.62-20.38L59.62-20.38Q59.62-36.41 68.45-46.76L68.45-46.76L68.45-46.76Q77.83-57.77 94.07-57.77L94.07-57.77L94.07-57.77Q105.84-57.77 111.83-52.32L111.83-52.32L111.83-52.32Q117.83-46.87 117.83-35.42L117.83-35.42L117.83-35.42Q117.83-17.98 108.45-7.85L108.45-7.85L108.45-7.85Q99.30 2.18 83.60 2.18ZM86.44-45.23L86.44-45.23L86.44-45.23Q85.13-42.29 84.09-37.88L84.09-37.88L84.09-37.88Q83.06-33.46 81.75-26.49L81.75-26.49L81.75-26.49Q80.44-19.51 80.44-10.90L80.44-10.90L80.44-10.90Q80.44-8.07 81.37-6.21L81.37-6.21L81.37-6.21Q82.30-4.36 84.80-4.36L84.80-4.36L84.80-4.36Q87.31-4.36 88.89-5.56L88.89-5.56L88.89-5.56Q90.47-6.76 91.67-9.59L91.67-9.59L91.67-9.59Q93.85-14.61 95.59-23.93L95.59-23.93L95.59-23.93Q97.34-33.24 97.50-37.28L97.50-37.28L97.50-37.28Q97.66-41.31 97.66-44.31L97.66-44.31L97.66-44.31Q97.66-47.31 96.79-49.27L96.79-49.27L96.79-49.27Q95.92-51.23 93.47-51.23L93.47-51.23L93.47-51.23Q91.02-51.23 89.38-49.70L89.38-49.70L89.38-49.70Q87.75-48.18 86.44-45.23ZM163.83-53.74L163.83-53.74L163.83-53.74Q167.42-57.77 173.64-57.77L173.64-57.77L173.64-57.77Q177.45-57.77 180.39-55.70L180.39-55.70L180.39-55.70Q183.34-53.63 183.34-49.76L183.34-49.76L183.34-49.76Q183.34-45.89 182.14-41.75L182.14-41.75L182.14-41.75Q180.94-37.60 179.09-33.35L179.09-33.35L179.09-33.35Q175.38-25.07 170.26-18.20L170.26-18.20L170.26-18.20Q163.06-8.28 156.14-3.05L156.14-3.05L156.14-3.05Q149.22 2.18 141.70 2.18L141.70 2.18L141.70 2.18Q135.60 2.18 131.89 0.76L131.89 0.76L131.89 0.76Q131.24-22.13 130.42-30.30L130.42-30.30L130.42-30.30Q129.60-38.48 128.95-42.95L128.95-42.95L128.95-42.95Q127.86-51.67 124.59-53.74L124.59-53.74L124.59-53.74Q127.09-55.92 129.55-56.84L129.55-56.84L129.55-56.84Q132.00-57.77 137.07-57.77L137.07-57.77L137.07-57.77Q142.14-57.77 145.73-53.79L145.73-53.79L145.73-53.79Q149.33-49.81 150.04-42.78L150.04-42.78L150.04-42.78Q150.75-35.75 150.75-27.25L150.75-27.25L150.75-27.25Q150.75-18.75 150.09-8.50L150.09-8.50L150.09-8.50Q153.47-10.90 157.07-18.20L157.07-18.20L157.07-18.20Q161.97-28.34 163.72-40.55L163.72-40.55L163.72-40.55Q164.26-44.25 164.26-48.18L164.26-48.18L164.26-48.18Q164.26-52.10 163.83-53.74ZM230.43-18.42L230.43-18.42L230.43-18.42Q233.15-16.57 233.15-12.48L233.15-12.48L233.15-12.48Q233.15-8.39 231.08-5.78L231.08-5.78L231.08-5.78Q229.01-3.16 225.63-1.42L225.63-1.42L225.63-1.42Q218.65 2.18 211.13 2.18L211.13 2.18L211.13 2.18Q203.61 2.18 199.20 0.55L199.20 0.55L199.20 0.55Q194.78-1.09 191.84-4.14L191.84-4.14L191.84-4.14Q186.06-9.92 186.06-20.49L186.06-20.49L186.06-20.49Q186.06-36.95 195.00-46.98L195.00-46.98L195.00-46.98Q204.59-57.77 221.27-57.77L221.27-57.77L221.27-57.77Q231.63-57.77 236.75-53.41L236.75-53.41L236.75-53.41Q240.56-50.14 240.56-44.80L240.56-44.80L240.56-44.80Q240.56-25.61 207.43-25.61L207.43-25.61L207.43-25.61Q206.99-22.78 206.99-20.38L206.99-20.38L206.99-20.38Q206.99-15.37 209.23-13.46L209.23-13.46L209.23-13.46Q211.46-11.55 215.60-11.55L215.60-11.55L215.60-11.55Q219.74-11.55 224.16-13.46L224.16-13.46L224.16-13.46Q228.57-15.37 230.43-18.42ZM208.19-30.30L208.19-30.30L208.19-30.30Q215.93-30.30 220.40-35.10L220.40-35.10L220.40-35.10Q224.87-39.68 224.87-46.98L224.87-46.98L224.87-46.98Q224.87-49.49 223.94-50.85L223.94-50.85L223.94-50.85Q223.01-52.21 221.16-52.21L221.16-52.21L221.16-52.21Q219.31-52.21 217.73-51.50L217.73-51.50L217.73-51.50Q216.15-50.79 214.51-48.40L214.51-48.40L214.51-48.40Q210.48-42.95 208.19-30.30ZM278.39-30.63L278.39-30.63L278.39-30.63Q282.31-37.60 282.31-44.69L282.31-44.69L282.31-44.69Q282.31-49.38 278.93-49.38L278.93-49.38L278.93-49.38Q276.31-49.38 273.59-44.91L273.59-44.91L273.59-44.91Q270.76-40.44 269.88-34.66L269.88-34.66L264.22 0L241.65 2.18L252.77-55.59L270.76-57.77L268.79-46.76L268.79-46.76Q274.13-57.77 286.13-57.77L286.13-57.77L286.13-57.77Q292.45-57.77 295.88-54.50L295.88-54.50L295.88-54.50Q299.31-51.23 299.31-44.53L299.31-44.53L299.31-44.53Q299.31-37.82 294.90-33.57L294.90-33.57L294.90-33.57Q290.49-29.32 282.96-29.32L282.96-29.32L282.96-29.32Q279.69-29.32 278.39-30.63ZM333.65-38.26L333.65-38.26L333.65-38.26Q335.17-42.29 335.17-45.78L335.17-45.78L335.17-45.78Q335.17-52.21 329.94-52.21L329.94-52.21L329.94-52.21Q327.22-52.21 324.98-49.76L324.98-49.76L324.98-49.76Q322.75-47.31 322.75-44.25L322.75-44.25L322.75-44.25Q322.75-42.07 324.49-40.33L324.49-40.33L324.49-40.33Q327-37.93 333.43-34.01L333.43-34.01L333.43-34.01Q339.86-30.08 342.31-26.87L342.31-26.87L342.31-26.87Q344.77-23.65 344.77-19.24L344.77-19.24L344.77-19.24Q344.77-14.82 342.64-10.79L342.64-10.79L342.64-10.79Q340.52-6.76 336.70-3.92L336.70-3.92L336.70-3.92Q328.53 2.18 315.45 2.18L315.45 2.18L315.45 2.18Q308.36 2.18 302.91-1.53L302.91-1.53L302.91-1.53Q297.46-5.12 297.46-9.37L297.46-9.37L297.46-9.37Q297.46-13.63 300.57-16.13L300.57-16.13L300.57-16.13Q303.67-18.64 308.25-18.64L308.25-18.64L308.25-18.64Q312.83-18.64 315.66-16.89L315.66-16.89L315.66-16.89Q314.25-13.30 314.25-10.90L314.25-10.90L314.25-10.90Q314.25-3.71 320.35-3.71L320.35-3.71L320.35-3.71Q322.97-3.71 324.71-5.34L324.71-5.34L324.71-5.34Q326.45-6.98 326.45-9.81L326.45-9.81L326.45-9.81Q326.45-15.37 317.08-21.25L317.08-21.25L317.08-21.25Q309.45-26.27 307.71-28.23L307.71-28.23L307.71-28.23Q304.76-31.72 304.76-36.08L304.76-36.08L304.76-36.08Q304.76-40.44 306.83-44.58L306.83-44.58L306.83-44.58Q308.91-48.72 312.72-51.67L312.72-51.67L312.72-51.67Q320.68-57.77 334.52-57.77L334.52-57.77L334.52-57.77Q341.61-57.77 345.80-54.94L345.80-54.94L345.80-54.94Q350.00-52.10 350.00-47.31L350.00-47.31L350.00-47.31Q350.00-42.51 347.11-39.78L347.11-39.78L347.11-39.78Q344.22-37.06 338.99-37.06L338.99-37.06L338.99-37.06Q335.39-37.06 333.65-38.26ZM398.18-18.42L398.18-18.42L398.18-18.42Q400.90-16.57 400.90-12.48L400.90-12.48L400.90-12.48Q400.90-8.39 398.83-5.78L398.83-5.78L398.83-5.78Q396.76-3.16 393.38-1.42L393.38-1.42L393.38-1.42Q386.40 2.18 378.88 2.18L378.88 2.18L378.88 2.18Q371.36 2.18 366.95 0.55L366.95 0.55L366.95 0.55Q362.53-1.09 359.59-4.14L359.59-4.14L359.59-4.14Q353.81-9.92 353.81-20.49L353.81-20.49L353.81-20.49Q353.81-36.95 362.75-46.98L362.75-46.98L362.75-46.98Q372.34-57.77 389.02-57.77L389.02-57.77L389.02-57.77Q399.38-57.77 404.50-53.41L404.50-53.41L404.50-53.41Q408.31-50.14 408.31-44.80L408.31-44.80L408.31-44.80Q408.31-25.61 375.18-25.61L375.18-25.61L375.18-25.61Q374.74-22.78 374.74-20.38L374.74-20.38L374.74-20.38Q374.74-15.37 376.98-13.46L376.98-13.46L376.98-13.46Q379.21-11.55 383.35-11.55L383.35-11.55L383.35-11.55Q387.50-11.55 391.91-13.46L391.91-13.46L391.91-13.46Q396.32-15.37 398.18-18.42ZM375.94-30.30L375.94-30.30L375.94-30.30Q383.68-30.30 388.15-35.10L388.15-35.10L388.15-35.10Q392.62-39.68 392.62-46.98L392.62-46.98L392.62-46.98Q392.62-49.49 391.69-50.85L391.69-50.85L391.69-50.85Q390.76-52.21 388.91-52.21L388.91-52.21L388.91-52.21Q387.06-52.21 385.48-51.50L385.48-51.50L385.48-51.50Q383.90-50.79 382.26-48.40L382.26-48.40L382.26-48.40Q378.23-42.95 375.94-30.30Z" fill="url(#editing-gradient-gradient)"></path></g></g><style>text {
  font-size: 64px;
  font-family: Arial Black;
  dominant-baseline: central;
  text-anchor: middle;
}</style></svg>