<svg width="77" height="36" viewBox="0 0 77 36" style="background: rgba(0, 0, 0, 0);" preserveAspectRatio="xMidYMid"><defs><linearGradient id="editing-outline-gradient" x1="-0.41354545764260087" x2="1.4135454576426008" y1="0.09326335692419985" y2="0.9067366430758002"><stop offset="0" stop-color="#ee4208"></stop><stop offset="1" stop-color="#4139ff"></stop></linearGradient><filter id="editing-outline" x="-100%" y="-100%" width="300%" height="300%"><feMorphology in="SourceGraphic" operator="dilate" radius="1" result="outline"></feMorphology><feComposite operator="out" in="outline" in2="SourceAlpha"></feComposite></filter></defs><g filter="url(#editing-outline)"><g transform="translate(129.6500005722046, 92.5999984741211)"><path d="M27.01-10.82L27.01-10.82L27.01-10.82Q28.61-9.73 28.61-7.33L28.61-7.33L28.61-7.33Q28.61-4.93 27.39-3.39L27.39-3.39L27.39-3.39Q26.18-1.86 24.19-0.83L24.19-0.83L24.19-0.83Q20.10 1.28 15.68 1.28L15.68 1.28L15.68 1.28Q11.26 1.28 8.67 0.32L8.67 0.32L8.67 0.32Q6.08-0.64 4.35-2.43L4.35-2.43L4.35-2.43Q0.96-5.82 0.96-12.03L0.96-12.03L0.96-12.03Q0.96-21.70 6.21-27.58L6.21-27.58L6.21-27.58Q11.84-33.92 21.63-33.92L21.63-33.92L21.63-33.92Q27.71-33.92 30.72-31.36L30.72-31.36L30.72-31.36Q32.96-29.44 32.96-26.30L32.96-26.30L32.96-26.30Q32.96-15.04 13.50-15.04L13.50-15.04L13.50-15.04Q13.25-13.38 13.25-11.97L13.25-11.97L13.25-11.97Q13.25-9.02 14.56-7.90L14.56-7.90L14.56-7.90Q15.87-6.78 18.30-6.78L18.30-6.78L18.30-6.78Q20.74-6.78 23.33-7.90L23.33-7.90L23.33-7.90Q25.92-9.02 27.01-10.82ZM13.95-17.79L13.95-17.79L13.95-17.79Q18.50-17.79 21.12-20.61L21.12-20.61L21.12-20.61Q23.74-23.30 23.74-27.58L23.74-27.58L23.74-27.58Q23.74-29.06 23.20-29.86L23.20-29.86L23.20-29.86Q22.66-30.66 21.57-30.66L21.57-30.66L21.57-30.66Q20.48-30.66 19.55-30.24L19.55-30.24L19.55-30.24Q18.62-29.82 17.66-28.42L17.66-28.42L17.66-28.42Q15.30-25.22 13.95-17.79ZM49.09 1.28L49.09 1.28L49.09 1.28Q35.01 1.28 35.01-11.97L35.01-11.97L35.01-11.97Q35.01-21.38 40.19-27.46L40.19-27.46L40.19-27.46Q45.70-33.92 55.23-33.92L55.23-33.92L55.23-33.92Q62.14-33.92 65.66-30.72L65.66-30.72L65.66-30.72Q69.18-27.52 69.18-20.80L69.18-20.80L69.18-20.80Q69.18-10.56 63.68-4.61L63.68-4.61L63.68-4.61Q58.30 1.28 49.09 1.28ZM50.75-26.56L50.75-26.56L50.75-26.56Q49.98-24.83 49.38-22.24L49.38-22.24L49.38-22.24Q48.77-19.65 48-15.55L48-15.55L48-15.55Q47.23-11.46 47.23-6.40L47.23-6.40L47.23-6.40Q47.23-4.74 47.78-3.65L47.78-3.65L47.78-3.65Q48.32-2.56 49.79-2.56L49.79-2.56L49.79-2.56Q51.26-2.56 52.19-3.26L52.19-3.26L52.19-3.26Q53.12-3.97 53.82-5.63L53.82-5.63L53.82-5.63Q55.10-8.58 56.13-14.05L56.13-14.05L56.13-14.05Q57.15-19.52 57.25-21.89L57.25-21.89L57.25-21.89Q57.34-24.26 57.34-26.02L57.34-26.02L57.34-26.02Q57.34-27.78 56.83-28.93L56.83-28.93L56.83-28.93Q56.32-30.08 54.88-30.08L54.88-30.08L54.88-30.08Q53.44-30.08 52.48-29.18L52.48-29.18L52.48-29.18Q51.52-28.29 50.75-26.56ZM96.19-31.55L96.19-31.55L96.19-31.55Q98.30-33.92 101.95-33.92L101.95-33.92L101.95-33.92Q104.19-33.92 105.92-32.70L105.92-32.70L105.92-32.70Q107.65-31.49 107.65-29.22L107.65-29.22L107.65-29.22Q107.65-26.94 106.94-24.51L106.94-24.51L106.94-24.51Q106.24-22.08 105.15-19.58L105.15-19.58L105.15-19.58Q102.98-14.72 99.97-10.69L99.97-10.69L99.97-10.69Q95.74-4.86 91.68-1.79L91.68-1.79L91.68-1.79Q87.62 1.28 83.20 1.28L83.20 1.28L83.20 1.28Q79.62 1.28 77.44 0.45L77.44 0.45L77.44 0.45Q77.06-12.99 76.58-17.79L76.58-17.79L76.58-17.79Q76.10-22.59 75.71-25.22L75.71-25.22L75.71-25.22Q75.07-30.34 73.15-31.55L73.15-31.55L73.15-31.55Q74.62-32.83 76.06-33.38L76.06-33.38L76.06-33.38Q77.50-33.92 80.48-33.92L80.48-33.92L80.48-33.92Q83.46-33.92 85.57-31.58L85.57-31.58L85.57-31.58Q87.68-29.25 88.10-25.12L88.10-25.12L88.10-25.12Q88.51-20.99 88.51-16L88.51-16L88.51-16Q88.51-11.01 88.13-4.99L88.13-4.99L88.13-4.99Q90.11-6.40 92.22-10.69L92.22-10.69L92.22-10.69Q95.10-16.64 96.13-23.81L96.13-23.81L96.13-23.81Q96.45-25.98 96.45-28.29L96.45-28.29L96.45-28.29Q96.45-30.59 96.19-31.55ZM135.30-10.82L135.30-10.82L135.30-10.82Q136.90-9.73 136.90-7.33L136.90-7.33L136.90-7.33Q136.90-4.93 135.68-3.39L135.68-3.39L135.68-3.39Q134.46-1.86 132.48-0.83L132.48-0.83L132.48-0.83Q128.38 1.28 123.97 1.28L123.97 1.28L123.97 1.28Q119.55 1.28 116.96 0.32L116.96 0.32L116.96 0.32Q114.37-0.64 112.64-2.43L112.64-2.43L112.64-2.43Q109.25-5.82 109.25-12.03L109.25-12.03L109.25-12.03Q109.25-21.70 114.50-27.58L114.50-27.58L114.50-27.58Q120.13-33.92 129.92-33.92L129.92-33.92L129.92-33.92Q136-33.92 139.01-31.36L139.01-31.36L139.01-31.36Q141.25-29.44 141.25-26.30L141.25-26.30L141.25-26.30Q141.25-15.04 121.79-15.04L121.79-15.04L121.79-15.04Q121.54-13.38 121.54-11.97L121.54-11.97L121.54-11.97Q121.54-9.02 122.85-7.90L122.85-7.90L122.85-7.90Q124.16-6.78 126.59-6.78L126.59-6.78L126.59-6.78Q129.02-6.78 131.62-7.90L131.62-7.90L131.62-7.90Q134.21-9.02 135.30-10.82ZM122.24-17.79L122.24-17.79L122.24-17.79Q126.78-17.79 129.41-20.61L129.41-20.61L129.41-20.61Q132.03-23.30 132.03-27.58L132.03-27.58L132.03-27.58Q132.03-29.06 131.49-29.86L131.49-29.86L131.49-29.86Q130.94-30.66 129.86-30.66L129.86-30.66L129.86-30.66Q128.77-30.66 127.84-30.24L127.84-30.24L127.84-30.24Q126.91-29.82 125.95-28.42L125.95-28.42L125.95-28.42Q123.58-25.22 122.24-17.79ZM163.46-17.98L163.46-17.98L163.46-17.98Q165.76-22.08 165.76-26.24L165.76-26.24L165.76-26.24Q165.76-28.99 163.78-28.99L163.78-28.99L163.78-28.99Q162.24-28.99 160.64-26.37L160.64-26.37L160.64-26.37Q158.98-23.74 158.46-20.35L158.46-20.35L155.14 0L141.89 1.28L148.42-32.64L158.98-33.92L157.82-27.46L157.82-27.46Q160.96-33.92 168-33.92L168-33.92L168-33.92Q171.71-33.92 173.73-32L173.73-32L173.73-32Q175.74-30.08 175.74-26.14L175.74-26.14L175.74-26.14Q175.74-22.21 173.15-19.71L173.15-19.71L173.15-19.71Q170.56-17.22 166.14-17.22L166.14-17.22L166.14-17.22Q164.22-17.22 163.46-17.98ZM195.90-22.46L195.90-22.46L195.90-22.46Q196.80-24.83 196.80-26.88L196.80-26.88L196.80-26.88Q196.80-30.66 193.73-30.66L193.73-30.66L193.73-30.66Q192.13-30.66 190.82-29.22L190.82-29.22L190.82-29.22Q189.50-27.78 189.50-25.98L189.50-25.98L189.50-25.98Q189.50-24.70 190.53-23.68L190.53-23.68L190.53-23.68Q192-22.27 195.78-19.97L195.78-19.97L195.78-19.97Q199.55-17.66 200.99-15.78L200.99-15.78L200.99-15.78Q202.43-13.89 202.43-11.30L202.43-11.30L202.43-11.30Q202.43-8.70 201.18-6.34L201.18-6.34L201.18-6.34Q199.94-3.97 197.70-2.30L197.70-2.30L197.70-2.30Q192.90 1.28 185.22 1.28L185.22 1.28L185.22 1.28Q181.06 1.28 177.86-0.90L177.86-0.90L177.86-0.90Q174.66-3.01 174.66-5.50L174.66-5.50L174.66-5.50Q174.66-8 176.48-9.47L176.48-9.47L176.48-9.47Q178.30-10.94 180.99-10.94L180.99-10.94L180.99-10.94Q183.68-10.94 185.34-9.92L185.34-9.92L185.34-9.92Q184.51-7.81 184.51-6.40L184.51-6.40L184.51-6.40Q184.51-2.18 188.10-2.18L188.10-2.18L188.10-2.18Q189.63-2.18 190.66-3.14L190.66-3.14L190.66-3.14Q191.68-4.10 191.68-5.76L191.68-5.76L191.68-5.76Q191.68-9.02 186.18-12.48L186.18-12.48L186.18-12.48Q181.70-15.42 180.67-16.58L180.67-16.58L180.67-16.58Q178.94-18.62 178.94-21.18L178.94-21.18L178.94-21.18Q178.94-23.74 180.16-26.18L180.16-26.18L180.16-26.18Q181.38-28.61 183.62-30.34L183.62-30.34L183.62-30.34Q188.29-33.92 196.42-33.92L196.42-33.92L196.42-33.92Q200.58-33.92 203.04-32.26L203.04-32.26L203.04-32.26Q205.50-30.59 205.50-27.78L205.50-27.78L205.50-27.78Q205.50-24.96 203.81-23.36L203.81-23.36L203.81-23.36Q202.11-21.76 199.04-21.76L199.04-21.76L199.04-21.76Q196.93-21.76 195.90-22.46ZM233.79-10.82L233.79-10.82L233.79-10.82Q235.39-9.73 235.39-7.33L235.39-7.33L235.39-7.33Q235.39-4.93 234.18-3.39L234.18-3.39L234.18-3.39Q232.96-1.86 230.98-0.83L230.98-0.83L230.98-0.83Q226.88 1.28 222.46 1.28L222.46 1.28L222.46 1.28Q218.05 1.28 215.46 0.32L215.46 0.32L215.46 0.32Q212.86-0.64 211.14-2.43L211.14-2.43L211.14-2.43Q207.74-5.82 207.74-12.03L207.74-12.03L207.74-12.03Q207.74-21.70 212.99-27.58L212.99-27.58L212.99-27.58Q218.62-33.92 228.42-33.92L228.42-33.92L228.42-33.92Q234.50-33.92 237.50-31.36L237.50-31.36L237.50-31.36Q239.74-29.44 239.74-26.30L239.74-26.30L239.74-26.30Q239.74-15.04 220.29-15.04L220.29-15.04L220.29-15.04Q220.03-13.38 220.03-11.97L220.03-11.97L220.03-11.97Q220.03-9.02 221.34-7.90L221.34-7.90L221.34-7.90Q222.66-6.78 225.09-6.78L225.09-6.78L225.09-6.78Q227.52-6.78 230.11-7.90L230.11-7.90L230.11-7.90Q232.70-9.02 233.79-10.82ZM220.74-17.79L220.74-17.79L220.74-17.79Q225.28-17.79 227.90-20.61L227.90-20.61L227.90-20.61Q230.53-23.30 230.53-27.58L230.53-27.58L230.53-27.58Q230.53-29.06 229.98-29.86L229.98-29.86L229.98-29.86Q229.44-30.66 228.35-30.66L228.35-30.66L228.35-30.66Q227.26-30.66 226.34-30.24L226.34-30.24L226.34-30.24Q225.41-29.82 224.45-28.42L224.45-28.42L224.45-28.42Q222.08-25.22 220.74-17.79Z" fill="url(#editing-outline-gradient)"></path></g></g><style>text {
  font-size: 64px;
  font-family: Arial Black;
  dominant-baseline: central;
  text-anchor: middle;
}</style></svg>